/* XPM */
static char *_77db48052c4463cb096e1add9d3198b[] = {
/* columns rows colors chars-per-pixel */
"64 64 186 2 ",
"   c #000000",
".  c #090603",
"X  c #0C0905",
"o  c #050508",
"O  c #0A030A",
"+  c #070908",
"@  c #0C0B09",
"#  c #120D05",
"$  c #110E0A",
"%  c #181207",
"&  c #14110C",
"*  c #1C160C",
"=  c #1E190E",
"-  c #140D15",
";  c #151311",
":  c #1A1613",
">  c #1D1A14",
",  c #191718",
"<  c #1D1B1A",
"1  c #221A0E",
"2  c #201710",
"3  c #231C14",
"4  c #281E15",
"5  c #221D19",
"6  c #281F18",
"7  c #2D250F",
"8  c #272015",
"9  c #2B2315",
"0  c #25221C",
"q  c #2B241C",
"w  c #2D291E",
"e  c #312516",
"r  c #332B1C",
"t  c #37301E",
"y  c #3B331E",
"u  c #262421",
"i  c #2A2521",
"p  c #2E2A24",
"a  c #29222A",
"s  c #2D2B29",
"d  c #302721",
"f  c #342C23",
"g  c #382E25",
"h  c #332E29",
"j  c #382F29",
"k  c #3B3325",
"l  c #36312D",
"z  c #3B342B",
"x  c #3D392D",
"c  c #373634",
"v  c #3B3631",
"b  c #3E3A35",
"n  c #3D3B38",
"m  c #423626",
"M  c #413926",
"N  c #40362D",
"B  c #423A2D",
"V  c #433C34",
"C  c #483F30",
"Z  c #433D39",
"A  c #483F39",
"S  c #484029",
"D  c #53492E",
"F  c #454134",
"G  c #4C4535",
"H  c #4F4933",
"J  c #45403B",
"K  c #4B443A",
"L  c #504736",
"P  c #534C34",
"I  c #584E35",
"U  c #51473B",
"Y  c #544C3C",
"T  c #5B523D",
"R  c #61553D",
"E  c #615B3F",
"W  c #4C4743",
"Q  c #4E4C45",
"!  c #4F4B48",
"~  c #544D44",
"^  c #565044",
"/  c #5C5444",
"(  c #5F5943",
")  c #55524A",
"_  c #5B554B",
"`  c #5E5A4E",
"'  c #615545",
"]  c #635B45",
"[  c #695E45",
"{  c #605748",
"}  c #645C4B",
"|  c #695E4A",
" . c #645E53",
".. c #665C5B",
"X. c #6B6346",
"o. c #67604E",
"O. c #6B624C",
"+. c #6E694C",
"@. c #71664D",
"#. c #74694D",
"$. c #786D4F",
"%. c #676152",
"&. c #6C6553",
"*. c #6E6852",
"=. c #66635A",
"-. c #6A6359",
";. c #6F6858",
":. c #726654",
">. c #736B53",
",. c #7A6E54",
"<. c #736C5A",
"1. c #796E59",
"2. c #7C7155",
"3. c #76715A",
"4. c #7D7258",
"5. c #7E7559",
"6. c #7B735C",
"7. c #7E775E",
"8. c #7C745C",
"9. c #7F785C",
"0. c #6F6B61",
"q. c #756E62",
"w. c #796F66",
"e. c #7C7561",
"r. c #7C7462",
"t. c #7F7866",
"y. c #7C756B",
"u. c #7D7472",
"i. c #807356",
"p. c #81755B",
"a. c #80765B",
"s. c #81775A",
"d. c #83775D",
"f. c #82765E",
"g. c #85775D",
"h. c #83765A",
"j. c #83785A",
"k. c #857B5D",
"l. c #857A5D",
"z. c #887D5F",
"x. c #897B5E",
"c. c #817663",
"v. c #867A61",
"b. c #847C62",
"n. c #897E62",
"m. c #8B7F65",
"M. c #897E62",
"N. c #877F6D",
"B. c #857D6A",
"V. c #887D69",
"C. c #817A70",
"Z. c #847A78",
"A. c #878063",
"S. c #8A8063",
"D. c #8D8166",
"F. c #8B8164",
"G. c #87806C",
"H. c #8F8468",
"J. c #8A826B",
"K. c #908265",
"L. c #878171",
"P. c #8E8572",
"I. c #8F877A",
"U. c #8D897E",
"Y. c #908976",
"T. c #928C7E",
"R. c #989282",
"E. c #9E9488",
"W. c #A29B88",
"Q. c #A9A397",
"!. c #AAA39A",
"~. c #B2AB99",
"^. c #C5BCB9",
"/. c #CFC7BC",
"(. c #D7CDCE",
"). c #DAD3C9",
"_. c #DDD3D4",
"`. c #E0D7D0",
"'. c #E7DFD4",
"]. c #E7DBDB",
"[. c #EEE6DB",
"{. c #E9DFE0",
"}. c #EBE1E0",
"|. c #F3E7E7",
" X c #F5EAEA",
".X c #FAF0F1",
/* pixels */
"                                                                                                                                ",
"                                                                                                                                ",
"                                                                                                                                ",
"                                                                                                                                ",
"                                                                                                                                ",
"                                                                                                                                ",
"                                                                                                                                ",
"                                                                                                                                ",
"                                                            o                                                                   ",
"                                                      +                                                                         ",
"                                              o                         o                                                       ",
"                                        o o       . .     X X   @                                                               ",
"                                            . . . X # > > 3 1 8 4 * * # # X   .                                                 ",
"                                          . & : 3 g z K B Y Y } ( / Y k 9 w 1 &                                                 ",
"                                      @ 0 p p q ^ &.;.&.} <.c.V.,.7.J.e.&./ g > & @                                             ",
"                                    . : 0 w F } } } <.O.1.@.v.v.h.,.j.7.6.<.O.*.z q $                                           ",
"                                    & = z *.O.:.:.1.d.d.v.v.X.S.#.5.S.h.>.2.| <.e.r 3 X                                         ",
"                                  : f f } T ] T #.4.M.D.m.h.X.h.2.l.2.X.,.#.d.>.4.N.z =       o                                 ",
"                          .     p i x  .Y ( O.>.h.4.,.d.m.M.5.h.F.j.X.h.m.,.h.d.:.c.*.q X                                       ",
"                              $ h 5 _  .L O.>.,.h.d.4.d.d.d.D.H.M.x.4.D.m.D.h.,.o.] N.z > @ o                                   ",
"                              5 5 l -.C } O.[ @.,.h.p.g.4.>.l.h.k.x.S.j.n.i.g.,.#.5.e.<.8 :                                     ",
"                            . p 5 ~ ~ U } | R 4.h.l.l.l.l.h.D.l.k.S.h.S.g.#.x.l.4.j.7.~.K p .                                   ",
"                            + h 6 U G O.| I X.4.#.i.l.,.,.#.j.k.i.H.h.x.,.x.K.h.X.I O.W.&.q .                                   ",
"                            + h q / L *.I T h.M.g.l.M.4.h.i.i.2.F.$.h.2.h.x.x.x.M.5.>.<.r.8 X                                   ",
"                            < : g T ( O.D X.@.j.x.x.#.h.k.M.j.#.k.2.l.l.j.D.x.x.k.j.#.>.<.4 . .                                 ",
"                        .   < > K T o.O.T @.[ h.i.4.,.M.M.l.k.x.M.$.$.j.M.F.M.M.l.M.7.*.<.8 &                                   ",
"                            : > U } ] :.#.#.#.,.l.4.l.v.v.n.M.k.S.j.h.M.n.h.l.k.M.k.m.6.t.% #                                   ",
"                            < q / <.} >.>.@.,.4.4.@.m.m.n.d.2.>.k.S.D.n.l.M.D.S.h.>.c.Y.T.3 $                                   ",
"                            & 5 F Y } <.*.:.] 8.:.I :.B.P.b.7.F.n.k.n.4.5.F.n.l.v.j.G.P.r.0 $                                   ",
"                            $ 0 f z Y <.*.O.T 1.' e 9 m | c.c.V.A.S.n.j.n.n.k.M.n.j.6.r.~ i @                                   ",
"                          @ 0 J J K U %.} ( ' :.e r k r 9 B / 7.+.A.5.F.D.j.D.n.o.S 9 9 * 5 .                                   ",
"                          + < n z g _ / } :.T { 9 f k B k g 8 9 H 3.] >.6.o.<.L 7 9 k B 3 i .                                   ",
"                          + < c h f ~ _ { *.} T 4 q f q q z k r 3 w 8 g ~ 4 3 8 f l w v < u ;                                   ",
"                          + < c 5 K z I ] :.] } r 1 w y.~ 3 8 4 h s i v ~ 6 d w q * q 5 5 ,   o                                 ",
"                          o < l q / M ] +.O.:.O.U w u.{.(.^.Z.K q 0 q V -.q q k -.!.u.5 5 , o                                   ",
"                            @ u C B P P X.X.] O.q.~ A _..X X}.^.!.z V <.q./ B /.[.).~ : i :                                     ",
"                            o < K T P T 5.E >.O.z 4 5 ..].|. X`.I.r 6.*.r *.r E.'.C.l 0 < ,   +                                 ",
"                            o & 4 ( { 3.:.P 3.G 9 g 6 V l  .w.U t *.G./ 9 t ( r k z 0.z & :                                     ",
"                              . $ h  .&.Y } &.Y 1 8 1 <.r.O.] :.c.V.e.y 7 1 *.B.<.y.U.h 0 .   o                                 ",
"                                  5 > 6 x ~ q.<./ r M V.G.9.F.c.n.c.A.P 7 T :.N.L.T.U.q 0 .                                     ",
"                                @ a , @ i w K %.;.V.c.e.V.H.9.A.F.n.c.E T { 3.t.T.Q.K * >                                       ",
"                                  - O . 5 i 5 w ~ *.e.<.4.b.A.F.9.7.V.c.<.O.t.R.T.x & &     o                                   ",
"                                      . & h # * % 9 G ( <.r.V.c.G.G.c.N.G.L.y. .f & $     .                                     ",
"                                          5 X > 8 = * 1 q q k C G / / Y F r r * . .                                             ",
"                                      .   . @ 5 0 w 3 q d 3 * q 1 8 = * 0 = 3 @ X           o                                   ",
"                                      .   . < h h n 0 q j j 6 6 f z p 3 v l s :     .     .                                     ",
"                                          ; u l n v 3 0 N A v 6 q q 5 q Q n u 0 &                                               ",
"                                          , < 0 h i 3 w V A A q q Z z i Z J i 0 @ .                                             ",
"                                    o   @ s ) _ V z 1 g B B V f x 6 3 z v W 0 ! u .                                             ",
"                                        @ > p F ` ~ 8 8 r g k w N g w j x J i V i .                                             ",
"                                      . & n ) Q z V 4 3 4 4 4 3 3 6 2 6 i f q l u @                                             ",
"                                        @ Q q. .=.` w 8 g l f q d f q w q 0 : i 5 .                                             ",
"                                        @ i Q =.0. .g q w p d l f p p h h Z i s ; .                                             ",
"                                        . @ s J V l 3 p V K v z V v z l z ~ 0 ; +                                               ",
"                                o     .     : & > 0 0 h v V V A Z V l h l Z 0 @                                                 ",
"                                      o   . + : $ > < 3 < q i h 0 0 < < 5 : &                                                   ",
"                                                @ 0 h s s h u ; : h n n J s @                                                   ",
"                                                @ 0 v n n c i $ : p l v n s & .                                                 ",
"                                                  + @ @ & ; +     + @ + @ +                                                     ",
"                                                          o                                                                     ",
"                                                                                                                                ",
"                                                              o                                                                 ",
"                                                      o                                                                         ",
"                                                                                                                                "
};
