/* XPM */
static char *_0fd4761a7614a7ebc3a1d60c975582c3OYQ1SrM291LMd3P[] = {
/* columns rows colors chars-per-pixel */
"64 64 256 2 ",
"   c black",
".  c #010101",
"X  c #020202",
"o  c gray1",
"O  c #040404",
"+  c gray2",
"@  c #060606",
"#  c #070707",
"$  c gray3",
"%  c #090909",
"&  c gray4",
"*  c #0B0B0B",
"=  c #0C0C0C",
"-  c gray5",
";  c #0E0E0E",
":  c gray6",
">  c #101010",
",  c #111111",
"<  c gray7",
"1  c #131313",
"2  c gray8",
"3  c #151515",
"4  c #161616",
"5  c gray9",
"6  c #181818",
"7  c #191919",
"8  c gray10",
"9  c #1B1B1B",
"0  c gray11",
"q  c #1D1D1D",
"w  c #1E1E1E",
"e  c gray12",
"r  c #202020",
"t  c gray13",
"y  c #222222",
"u  c #232323",
"i  c gray14",
"p  c #252525",
"a  c gray15",
"s  c #272727",
"d  c #282828",
"f  c gray16",
"g  c #2A2A2A",
"h  c gray17",
"j  c #2C2C2C",
"k  c #2D2D2D",
"l  c gray18",
"z  c #2F2F2F",
"x  c gray19",
"c  c #313131",
"v  c #323232",
"b  c gray20",
"n  c #343434",
"m  c #353535",
"M  c gray21",
"N  c #373737",
"B  c gray22",
"V  c #393939",
"C  c #3A3A3A",
"Z  c gray23",
"A  c #3C3C3C",
"S  c gray24",
"D  c #3E3E3E",
"F  c #3F3F3F",
"G  c gray25",
"H  c #414141",
"J  c gray26",
"K  c #434343",
"L  c #444444",
"P  c gray27",
"I  c #464646",
"U  c gray28",
"Y  c #484848",
"T  c #494949",
"R  c gray29",
"E  c #4B4B4B",
"W  c #4C4C4C",
"Q  c gray30",
"!  c #4E4E4E",
"~  c gray31",
"^  c #505050",
"/  c #515151",
"(  c gray32",
")  c #535353",
"_  c gray33",
"`  c #555555",
"'  c #565656",
"]  c gray34",
"[  c #585858",
"{  c gray35",
"}  c #5A5A5A",
"|  c #5B5B5B",
" . c gray36",
".. c #5D5D5D",
"X. c gray37",
"o. c #5F5F5F",
"O. c #606060",
"+. c gray38",
"@. c #626262",
"#. c gray39",
"$. c #646464",
"%. c #656565",
"&. c gray40",
"*. c #676767",
"=. c #686868",
"-. c DimGray",
";. c #6A6A6A",
":. c gray42",
">. c #6C6C6C",
",. c #6D6D6D",
"<. c gray43",
"1. c #6F6F6F",
"2. c gray44",
"3. c #717171",
"4. c #727272",
"5. c gray45",
"6. c #747474",
"7. c gray46",
"8. c #767676",
"9. c #777777",
"0. c gray47",
"q. c #797979",
"w. c gray48",
"e. c #7B7B7B",
"r. c #7C7C7C",
"t. c gray49",
"y. c #7E7E7E",
"u. c gray50",
"i. c #808080",
"p. c #818181",
"a. c gray51",
"s. c #838383",
"d. c #848484",
"f. c gray52",
"g. c #868686",
"h. c gray53",
"j. c #888888",
"k. c #898989",
"l. c gray54",
"z. c #8B8B8B",
"x. c gray55",
"c. c #8D8D8D",
"v. c #8E8E8E",
"b. c gray56",
"n. c #909090",
"m. c gray57",
"M. c #929292",
"N. c #939393",
"B. c gray58",
"V. c #959595",
"C. c gray59",
"Z. c #979797",
"A. c #989898",
"S. c gray60",
"D. c #9A9A9A",
"F. c #9B9B9B",
"G. c gray61",
"H. c #9D9D9D",
"J. c gray62",
"K. c #9F9F9F",
"L. c #A0A0A0",
"P. c gray63",
"I. c #A2A2A2",
"U. c gray64",
"Y. c #A4A4A4",
"T. c #A5A5A5",
"R. c gray65",
"E. c #A7A7A7",
"W. c gray66",
"Q. c #A9A9A9",
"!. c #AAAAAA",
"~. c gray67",
"^. c #ACACAC",
"/. c gray68",
"(. c #AEAEAE",
"). c #AFAFAF",
"_. c gray69",
"`. c #B1B1B1",
"'. c #B2B2B2",
"]. c gray70",
"[. c #B4B4B4",
"{. c gray71",
"}. c #B6B6B6",
"|. c #B7B7B7",
" X c gray72",
".X c #B9B9B9",
"XX c gray73",
"oX c #BBBBBB",
"OX c #BCBCBC",
"+X c gray74",
"@X c gray",
"#X c gray75",
"$X c #C0C0C0",
"%X c #C1C1C1",
"&X c gray76",
"*X c #C3C3C3",
"=X c gray77",
"-X c #C5C5C5",
";X c #C6C6C6",
":X c gray78",
">X c #C8C8C8",
",X c gray79",
"<X c #CACACA",
"1X c #CBCBCB",
"2X c gray80",
"3X c #CDCDCD",
"4X c #CECECE",
"5X c gray81",
"6X c #D0D0D0",
"7X c gray82",
"8X c #D2D2D2",
"9X c LightGray",
"0X c gray83",
"qX c #D5D5D5",
"wX c gray84",
"eX c #D7D7D7",
"rX c #D8D8D8",
"tX c gray85",
"yX c #DADADA",
"uX c gray86",
"iX c gainsboro",
"pX c #DDDDDD",
"aX c gray87",
"sX c #DFDFDF",
"dX c gray88",
"fX c #E1E1E1",
"gX c #E2E2E2",
"hX c gray89",
"jX c #E4E4E4",
"kX c gray90",
"lX c #E6E6E6",
"zX c #E7E7E7",
"xX c gray91",
"cX c #E9E9E9",
"vX c #EAEAEA",
"bX c gray92",
"nX c #ECECEC",
"mX c gray93",
"MX c #EEEEEE",
"NX c #EFEFEF",
"BX c gray94",
"VX c #F1F1F1",
"CX c gray95",
"ZX c #F3F3F3",
"AX c #F4F4F4",
"SX c gray96",
"DX c #F6F6F6",
"FX c gray97",
"GX c #F8F8F8",
"HX c #F9F9F9",
"JX c gray98",
"KX c #FBFBFB",
"LX c gray99",
"PX c #FDFDFD",
"IX c #FEFEFE",
"UX c white",
/* pixels */
"R.R.R.R.R.R.R.R.R.R.R.R.R.R.R.R.R.R.R.W.Q.R.J.v.t.3.4.i.B.T.(.(.~.W.R.W.W.R.J.v.t.3.4.i.B.T.(.(.~.W.R.R.R.R.R.W.Q.R.J.b.u.3.-.%.",
"E.E.E.E.E.E.E.E.E.E.E.E.E.E.E.E.E.E.E.W.Q.R.J.v.t.3.4.i.N.T./.(.~.W.E.W.W.R.J.v.t.3.4.i.N.T./.(.~.W.E.R.R.E.E.W.Q.R.J.b.y.3.-.%.",
"W.W.W.W.W.W.W.W.W.W.W.W.W.W.W.W.W.W.W.Q.Q.R.H.v.r.3.4.u.M.U.^./.~.Q.W.W.Q.R.H.v.r.3.4.u.M.U.^./.~.Q.W.W.W.W.W.Q.Q.R.H.v.y.3.-.%.",
"!.!.!.!.!.!.!.!.!.!.!.!.!.!.!.!.!.!.Q.Q.Q.T.G.c.r.3.4.y.n.P.!.^.^.!.Q.Q.Q.T.G.c.r.3.4.y.n.P.!.^.~.!.!.!.!.!.Q.Q.Q.T.G.v.y.3.-.%.",
"^.^.^.^.^.^.^.^.^.^.^.^.^.^.^.^.^.^.~.!.Q.Y.F.x.r.3.3.t.v.J.E.~.^.~.~.~.Q.Y.F.x.r.3.3.t.v.J.E.~.^.~.^.^.^.^.~.!.Q.Y.F.c.t.2.-.%.",
"/././././././././././././././.(.(./.^.~.W.U.D.z.e.3.3.r.x.F.Y.Q.^.^.^.~.Q.U.D.z.e.3.3.r.x.F.Y.Q.~.^./.(.(./.^.~.W.U.D.x.t.2.-.%.",
"/./././././././././././././././././.^.!.W.U.D.z.e.2.2.e.z.D.U.W.~.^.^.~.W.U.D.z.e.2.2.e.z.D.U.W.!.^./.(.(./.^.!.W.U.D.z.r.2.-.%.",
"^.^.^.^.^.^.^.^.^.^.^.^.^.^.^.^.^.~.~.!.W.Y.F.x.r.3.3.e.z.F.U.W.!.~.~.!.W.Y.F.x.r.3.3.e.z.F.U.W.!.~.^.^.^.^.~.!.W.Y.F.x.t.2.-.%.",
"W.W.W.W.W.W.W.W.W.W.W.W.W.W.Q.Q.Q.W.W.W.E.Y.F.x.r.3.3.r.x.F.Y.E.W.W.W.W.E.Y.F.x.r.3.3.r.x.F.Y.E.W.W.W.Q.Q.W.W.W.E.Y.F.c.t.2.-.%.",
"U.U.U.U.U.U.U.U.U.U.U.U.U.U.U.U.U.U.U.Y.Y.P.S.z.e.2.2.e.z.S.P.Y.Y.U.U.Y.Y.P.S.z.e.2.2.e.z.S.P.Y.Y.U.U.U.U.U.U.Y.Y.P.S.z.r.2.-.%.",
"D.D.D.D.D.D.D.D.D.D.D.D.D.D.D.D.D.D.D.F.F.S.N.g.q.1.1.q.g.N.S.F.F.D.D.F.F.S.N.g.q.1.1.q.g.N.S.F.F.D.D.D.D.D.D.F.F.S.N.h.w.1.-.%.",
"l.z.z.z.x.x.x.x.z.z.l.l.l.z.z.z.x.x.x.c.c.z.g.t.5.>.>.5.t.g.z.x.x.z.z.x.x.z.g.t.5.>.>.5.t.g.z.c.c.x.x.x.z.z.z.z.x.z.g.t.6.>.*.%.",
"e.e.e.r.r.t.t.r.r.e.e.e.e.e.e.r.r.t.t.t.r.e.0.5.,.-.-.,.5.0.e.r.r.e.e.r.r.e.0.5.,.-.-.,.5.0.e.t.t.t.t.r.e.e.e.e.r.e.0.5.<.-.&.%.",
"2.2.2.2.2.2.2.2.2.2.2.3.2.2.2.2.2.2.2.2.3.2.1.<.:.;.;.:.<.1.2.3.3.2.2.3.3.2.1.<.:.;.;.:.<.1.2.3.2.2.2.2.2.2.3.3.3.2.1.<.>.;.-.=.",
"4.3.2.<.>.;.;.>.1.3.4.4.4.3.2.<.>.;.;.>.1.3.4.4.4.3.3.3.3.3.3.3.3.3.3.3.3.3.3.3.3.3.3.3.3.3.2.<.>.;.;.>.1.3.4.4.4.3.3.3.3.3.3.3.",
"u.t.w.7.<.;.;.1.8.t.i.p.i.y.w.6.<.;.;.1.8.t.i.p.i.u.u.y.y.t.t.t.t.t.t.t.t.t.t.y.y.u.u.u.u.t.w.6.<.;.;.1.8.t.i.i.u.y.t.y.y.u.u.u.",
"m.v.k.u.7.,.,.8.s.v.N.B.N.b.k.u.6.,.,.8.s.v.N.B.M.n.b.b.v.v.v.v.v.v.v.v.v.v.v.b.b.b.n.n.n.v.k.u.6.,.,.8.s.v.N.N.m.b.v.v.b.b.n.n.",
"P.J.C.k.e.2.3.t.c.G.Y.R.Y.K.C.j.w.2.3.t.c.G.Y.Y.I.K.J.J.J.J.J.J.J.J.J.J.J.J.J.J.J.J.J.K.L.J.C.k.w.2.3.t.c.G.Y.Y.I.K.J.J.J.J.J.J.",
"Q.T.H.v.t.3.4.u.M.U.~.(.^.R.H.c.r.3.4.u.M.U.~./.~.W.E.E.E.E.E.E.E.E.E.E.E.E.E.E.E.E.E.W.W.T.H.c.r.3.4.u.M.U.~./.~.W.E.E.E.E.E.E.",
"!.R.J.b.y.4.4.u.M.U.~.(./.W.J.v.t.3.4.u.M.U.^.).(.^.^.^.^.^.^.^.^.^.^.^.^.^.^.^.^.^.^.^.~.E.J.v.t.3.4.u.M.U.^.).(.^.^.^.^.^.^.^.",
"W.T.G.v.t.3.3.y.b.K.W.~.!.T.H.c.r.3.3.y.b.K.Q.^././.(.(.(.(.(.(.(.(.(.(.(.(.(.(.(.(./.^.!.R.H.c.r.3.3.y.b.K.Q.^././.(.(.(.(.(.(.",
"R.I.D.x.t.3.3.r.x.F.U.E.R.U.D.x.r.3.3.r.x.F.T.Q.^./.(.(.(.(.(.(.(.(.(.(.(.(.(.(.(.(.^.~.Q.Y.D.z.e.3.3.r.x.F.T.Q.^./.(.(.(.(.(.(.",
"T.P.D.x.r.3.3.e.z.D.I.T.T.I.D.z.e.3.2.e.z.D.U.W.!.^././././././././././././././././.^.!.W.U.D.z.e.2.2.e.z.D.U.W.!.^././././././.",
"R.I.F.c.t.3.3.r.x.D.U.R.R.U.F.x.r.3.3.e.z.F.U.W.!.~.~.^.^.^.^.^.^.^.^.^.^.^.^.^.^.~.~.!.W.Y.F.x.r.3.3.e.z.F.U.W.!.~.~.^.^.^.^.^.",
"E.U.F.c.t.3.3.r.x.F.U.E.E.U.F.x.r.3.3.r.x.F.Y.E.W.W.W.Q.Q.Q.W.W.W.W.W.W.W.W.Q.Q.Q.W.W.W.E.Y.F.x.r.3.3.r.x.F.Y.E.W.W.W.Q.Q.Q.W.W.",
"Y.P.S.x.r.3.2.e.z.S.P.T.T.P.S.z.e.2.2.e.z.S.P.Y.Y.U.U.U.U.U.U.U.U.U.U.U.U.U.U.U.U.U.U.Y.Y.P.S.z.e.2.2.e.z.S.P.Y.Y.U.U.U.U.U.U.U.",
"G.S.N.h.q.1.1.q.g.N.D.H.H.D.N.g.q.1.1.q.g.N.S.F.F.D.D.D.D.D.D.D.D.D.D.D.D.D.D.D.D.D.D.F.F.S.N.g.q.1.1.q.g.N.S.F.F.D.D.D.D.D.D.D.",
"c.z.g.t.5.>.>.5.t.g.z.v.v.x.h.y.5.>.>.5.t.g.z.x.x.z.z.z.z.z.z.z.z.z.z.z.z.z.z.z.z.z.z.x.x.z.g.t.5.>.>.5.t.g.z.x.x.z.z.z.x.x.x.x.",
"r.e.0.5.<.-.-.,.5.0.e.t.y.t.w.6.<.-.-.,.5.0.e.r.r.e.e.e.e.e.e.e.e.e.e.e.e.e.e.e.e.e.e.r.r.e.0.5.,.-.-.,.5.0.e.r.e.e.e.r.r.t.t.t.",
"3.2.1.<.>.;.;.:.<.1.2.3.3.2.1.,.:.;.;.:.<.1.2.3.3.2.2.2.2.2.2.2.2.2.2.2.2.2.2.2.2.2.2.3.3.2.1.<.:.;.;.:.<.1.2.3.3.2.2.2.2.2.2.2.",
"3.3.3.3.3.3.3.3.3.3.2.<.>.;.;.>.<.3.4.4.4.3.3.3.3.3.3.3.3.3.3.3.3.3.3.3.3.3.3.3.3.3.3.3.3.3.3.3.3.3.3.3.3.3.3.3.3.3.2.<.>.;.-.=.",
"t.t.t.y.y.u.u.u.u.t.w.6.<.;.;.2.0.u.a.p.i.y.t.t.t.t.t.t.t.t.t.t.t.t.t.t.t.t.t.t.t.t.t.t.t.t.t.y.y.u.u.y.y.t.t.y.y.t.w.7.1.;.*.%.",
"v.v.v.b.b.b.n.n.n.v.k.u.6.,.,.9.d.b.B.B.M.b.v.v.v.v.v.v.v.v.v.v.v.v.v.v.v.v.v.v.v.v.v.v.v.v.v.b.b.b.b.b.b.v.v.b.n.v.k.u.7.>.*.%.",
"J.J.J.J.J.J.J.K.L.J.C.k.w.2.3.t.v.H.Y.T.I.K.J.J.J.J.J.J.J.J.J.J.J.J.J.J.J.J.J.J.J.J.J.J.J.J.J.J.J.J.J.J.J.J.J.K.L.J.C.k.e.2.-.%.",
"E.E.E.E.E.E.E.W.W.T.H.c.r.3.4.u.M.U.~./.~.W.E.E.E.E.E.E.E.E.E.E.E.E.E.E.E.E.E.E.E.E.E.E.E.E.E.E.E.E.E.E.E.E.E.W.W.T.H.v.y.3.-.%.",
"^.^.^.^.^.^.^.^.~.E.J.v.t.3.4.u.M.U.^.).(.^.^.^.^.^.^.^.^.^.^.^.^.^.^.^.^.^.^.^.^.^.^.^.^.^.^.^.^.^.^.^.^.^.^.^.~.E.J.b.y.3.-.%.",
"(.(.(.(.(.(./.^.!.R.H.c.r.3.3.y.b.K.Q.^././.(.(.(.(.(.(.(.(.(.(.(.(.(.(.(.(.(.(.(.(.(.(.(.(.(.(.(.(.(.(.(.(./.^.!.R.H.v.y.3.-.%.",
"(.(.(.(.(.(.^.~.Q.Y.D.z.e.3.3.r.x.F.T.Q.^./.(.(.(.(.(.(.(.(.(.(.(.(.(.(.(.(.(.(.(.(.(.(.(.(.(.(.(.(.(.(.(.(.^.~.Q.Y.D.x.t.2.-.%.",
"/./././././.^.!.W.U.D.z.e.2.2.e.z.D.U.W.!.^././././././././././././././././././././././././././././././././.^.!.W.U.D.z.r.2.-.%.",
"^.^.^.^.^.~.~.!.W.Y.F.x.r.3.3.e.z.F.U.W.!.~.~.^.^.^.^.^.^.^.^.^.^.^.^.^.^.^.^.^.^.^.^.^.^.^.^.^.^.^.^.^.^.~.~.!.W.Y.F.x.t.2.-.%.",
"W.W.Q.Q.Q.W.W.W.E.Y.F.x.r.3.3.r.x.F.Y.E.W.W.W.Q.Q.Q.W.W.W.W.W.W.W.W.W.W.W.W.W.W.W.W.W.W.W.W.W.W.W.W.Q.Q.Q.W.W.W.E.Y.F.c.t.2.-.%.",
"U.U.U.U.U.U.U.Y.Y.P.S.z.e.2.2.e.z.S.P.Y.Y.U.U.U.U.U.U.U.U.U.U.U.U.U.U.U.U.U.U.U.U.U.U.U.U.U.U.U.U.U.U.U.U.U.U.Y.Y.P.S.z.r.2.-.%.",
"D.D.D.D.D.D.D.F.F.S.N.g.q.1.1.q.g.N.S.F.F.D.D.D.D.D.D.D.D.D.D.D.D.D.D.D.D.D.D.D.D.D.D.D.D.D.D.D.D.D.D.D.D.D.D.F.F.D.N.h.w.1.=.%.",
"z.z.z.z.z.z.z.x.x.z.g.t.5.>.>.5.t.g.z.c.c.x.x.x.z.z.l.l.l.z.z.z.z.z.z.z.z.z.z.z.z.z.z.z.z.z.z.z.z.z.z.l.l.z.z.x.c.x.h.y.6.>.*.%.",
"e.e.e.e.e.e.e.r.r.e.0.5.,.-.-.,.5.0.e.t.t.t.t.r.r.e.e.e.e.e.e.e.e.e.e.e.e.e.e.e.e.e.e.e.e.e.e.e.e.e.e.e.e.e.e.r.t.t.w.7.<.-.&.%.",
"2.2.2.2.2.2.2.3.3.2.1.<.:.;.;.:.<.1.2.3.2.2.2.2.2.2.2.2.2.2.2.2.2.2.2.2.2.2.2.2.2.2.2.2.2.2.2.2.2.2.2.2.2.2.2.3.3.2.1.,.:.;.-.=.",
"3.3.3.3.3.3.3.3.3.3.3.3.3.3.3.3.3.3.2.<.>.;.;.>.1.3.4.4.4.3.3.3.3.3.3.3.3.3.3.3.3.3.3.3.3.3.3.3.3.3.3.3.3.3.2.<.>.;.;.>.1.3.4.5.",
"t.t.t.t.t.t.t.t.t.t.t.y.y.u.u.u.u.t.w.6.<.;.;.1.8.t.i.i.u.y.t.t.t.t.t.t.t.t.t.t.t.t.t.t.t.t.t.t.t.t.t.y.y.t.w.6.<.;.;.2.0.u.a.d.",
"v.v.v.v.v.v.v.v.v.v.v.b.b.b.n.n.n.v.k.u.6.,.,.8.s.v.N.N.m.b.v.v.v.v.v.v.v.v.v.v.v.v.v.v.v.v.v.v.v.v.v.b.n.v.k.u.6.,.<.9.d.b.V.A.",
"J.J.J.J.J.J.J.J.J.J.J.J.J.J.J.K.L.J.C.k.w.2.3.t.c.G.Y.Y.I.K.J.J.J.J.J.J.J.J.J.J.J.J.J.J.J.J.J.J.J.J.J.K.L.J.C.k.w.2.3.y.v.H.T.W.",
"E.E.E.E.E.E.E.E.E.E.E.E.E.E.E.W.W.T.H.c.r.3.4.u.M.U.~./.~.W.E.E.E.E.E.E.E.E.E.E.E.E.E.E.E.E.E.E.E.E.E.W.W.T.H.c.r.3.4.i.N.U.^._.",
"^.^.^.^.^.^.^.^.^.^.^.^.^.^.^.^.~.E.J.v.t.3.4.u.M.U.^.).(.^.^.^.^.^.^.^.^.^.^.^.^.^.^.^.^.^.^.^.^.^.^.^.~.E.J.v.t.3.4.i.N.U.^._.",
"(.(.(.(.(.(.(.(.(.(.(.(.(.(./.^.!.R.H.c.r.3.3.y.b.K.Q.^././.(.(.(.(.(.(.(.(.(.(.(.(.(.(.(.(.(.(.(.(./.^.!.R.H.c.r.3.4.u.n.K.W.^.",
"(.(.(.(.(.(.(.(.(.(.(.(.(.(.^.~.Q.Y.D.z.e.3.3.r.x.F.T.Q.^./.(.(.(.(.(.(.(.(.(.(.(.(.(.(.(.(.(.(.(.(.^.~.Q.Y.D.z.e.3.3.t.c.F.U.E.",
"/./././././././././././././.^.!.W.U.D.z.e.2.2.e.z.D.U.W.!.^././././././././././././././././././././.^.!.W.U.D.z.e.2.3.r.x.D.P.T.",
"^.^.^.^.^.^.^.^.^.^.^.^.^.~.~.!.W.Y.F.x.r.3.3.e.z.F.U.W.!.~.~.^.^.^.^.^.^.^.^.^.^.^.^.^.^.^.^.^.^.~.~.!.W.Y.F.x.r.3.3.t.c.D.I.R.",
"W.W.W.W.W.W.W.W.W.W.Q.Q.Q.W.W.W.E.Y.F.x.r.3.3.r.x.F.Y.E.W.W.W.Q.Q.Q.W.W.W.W.W.W.W.W.W.W.W.W.Q.Q.Q.W.W.W.E.Y.F.x.r.3.3.t.c.F.U.R.",
"U.U.U.U.U.U.U.U.U.U.U.U.U.U.U.Y.Y.P.S.z.e.2.2.e.z.S.P.Y.Y.U.U.U.U.U.U.U.U.U.U.U.U.U.U.U.U.U.U.U.U.U.U.Y.Y.P.S.z.e.2.3.r.x.S.P.Y.",
"D.D.D.D.D.D.D.D.D.D.D.D.D.D.D.F.F.S.N.g.q.1.1.q.g.N.S.F.F.D.D.D.D.D.D.D.D.D.D.D.D.D.D.D.D.D.D.D.D.D.D.F.F.S.N.g.q.1.2.w.h.N.S.G.",
"z.z.z.z.z.z.z.z.z.z.z.z.z.z.z.x.c.z.h.y.6.,.,.6.y.h.z.c.x.z.z.z.z.z.z.z.z.z.z.z.z.z.z.z.z.z.z.z.z.z.z.x.c.z.h.y.6.,.<.7.y.h.z.v.",
"r.r.r.r.r.r.r.r.r.r.r.r.r.r.r.t.t.t.w.7.1.:.:.1.7.w.t.t.t.r.r.r.r.r.r.r.r.r.r.r.r.r.r.r.r.r.r.r.r.r.r.t.t.t.w.7.1.:.:.2.7.w.t.y.",
"2.2.2.2.2.2.2.2.2.2.2.2.2.2.2.2.2.2.1.,.:.;.;.:.,.1.2.2.2.2.2.2.2.2.2.2.2.2.2.2.2.2.2.2.2.2.2.2.2.2.2.2.2.2.1.,.:.;.;.:.,.1.2.3.",
"-.-.-.-.-.-.-.-.-.-.-.-.-.-.-.-.-.-.-.-.-.-.-.-.-.-.-.-.-.-.-.-.-.-.-.-.-.-.-.-.-.-.-.-.-.-.-.-.-.-.-.-.-.-.-.-.-.-.-.-.-.-.-.-.",
"%.%.%.%.%.%.%.%.%.%.%.%.%.%.%.%.%.%.&.*.*.=.=.*.*.&.%.%.%.%.%.%.%.%.%.%.%.%.%.%.%.%.%.%.%.%.%.%.%.%.%.%.%.%.&.*.*.=.=.*.*.&.%.%."
};
