/* XPM */
static char *_29c427f229b417cb80e0e44ef37895cjGpFUISuSmEamhlQ[] = {
/* columns rows colors chars-per-pixel */
"64 64 153 2 ",
"   c None",
".  c #5E2F2C",
"X  c #523030",
"o  c #5F3634",
"O  c #5D3A33",
"+  c #5E3A39",
"@  c #663733",
"#  c #633A35",
"$  c #6A3935",
"%  c #653B38",
"&  c #6E3D3B",
"*  c #733E37",
"=  c #733E3A",
"-  c #783D38",
";  c #6E4037",
":  c #64413A",
">  c #68403E",
",  c #754037",
"<  c #73403B",
"1  c #7E413E",
"2  c #623F46",
"3  c #654447",
"4  c #684248",
"5  c #794341",
"6  c #7B4C4C",
"7  c #4E5B70",
"8  c #555F75",
"9  c #535F7B",
"0  c #7B5D60",
"q  c #55627C",
"w  c #5B637D",
"e  c #5F697F",
"r  c #786464",
"t  c #76626C",
"y  c #7F666B",
"u  c #79686B",
"i  c #776774",
"p  c #746974",
"a  c #846464",
"s  c #8A6667",
"d  c #846967",
"f  c #80666C",
"g  c #856D6D",
"h  c #8E6B6A",
"j  c #8F706F",
"k  c #876E70",
"l  c #896D70",
"z  c #857171",
"x  c #8C7372",
"c  c #88747F",
"v  c #9E7E7C",
"b  c #A17D79",
"n  c #9D807E",
"m  c #546381",
"M  c #5B6683",
"N  c #5A6985",
"B  c #5B6689",
"V  c #5A6889",
"C  c #626781",
"Z  c #8E7582",
"A  c #868490",
"S  c #8E8793",
"D  c #978A96",
"F  c #A88D94",
"G  c #B59B9D",
"H  c #8696AC",
"J  c #8997AC",
"K  c #8B9AAE",
"L  c #9492A0",
"P  c #9C95A4",
"I  c #9596AF",
"U  c #959DAE",
"Y  c #9899AD",
"T  c #879CB3",
"R  c #8C9CB3",
"E  c #8B9BB8",
"W  c #9297B1",
"Q  c #929CB3",
"!  c #989EB4",
"~  c #959EB9",
"^  c #AD9BA6",
"/  c #B199A1",
"(  c #A299B0",
")  c #8AA0B6",
"_  c #95A0B5",
"`  c #98A0B4",
"'  c #97A6BC",
"]  c #9AA6BB",
"[  c #9CA9BE",
"{  c #A1A5AA",
"}  c #ABA3AD",
"|  c #A6A1B0",
" . c #9CACC4",
".. c #A2AEC3",
"X. c #A2B1C5",
"o. c #A6B4C9",
"O. c #A9B6CB",
"+. c #AAB9CD",
"@. c #B0BACF",
"#. c #A7B8D0",
"$. c #ADBCD1",
"%. c #B1BDD2",
"&. c #B9BFD1",
"*. c #AFC1D4",
"=. c #B4C0D5",
"-. c #B8C2D7",
";. c #B5C4D9",
":. c #BAC5DB",
">. c #BECBDE",
",. c #BECBE0",
"<. c #C3CBDD",
"1. c #C0CADE",
"2. c #C1CADE",
"3. c #C3CBDF",
"4. c #C0CBDC",
"5. c #C4CADD",
"6. c #C1CCDD",
"7. c #C1CCDF",
"8. c #C0CADE",
"9. c #CBCBD9",
"0. c #CACCD9",
"q. c #CACCDB",
"w. c #C8CCDD",
"e. c #C3D1DE",
"r. c #CBD3DC",
"t. c #CDD0DD",
"y. c #EEDBDA",
"u. c #ECDCDB",
"i. c #EADDDD",
"p. c #C1CBE1",
"a. c #C0CAE0",
"s. c #C1CBE3",
"d. c #C2CCE2",
"f. c #C5CFE2",
"g. c #C3CFE4",
"h. c #C3CFE6",
"j. c #C5CFE4",
"k. c #C2CDE2",
"l. c #C3CFE8",
"z. c #C3D0E2",
"x. c #C4D2E2",
"c. c #C4D0E7",
"v. c #C5D2E6",
"b. c #C3D1E3",
"n. c #CDD1E1",
"m. c #CED0E4",
"M. c #CDD0E4",
"N. c #C8D4E6",
"B. c #C4D0E9",
"V. c #C6D3E8",
"C. c #C5D1E9",
"Z. c #FEEEE9",
"A. c #FFEDEC",
/* pixels */
"9 m m m m m m m m m m m m m m m m m m m m m m m m m m m m m m m m m m m m m m m m m m m m m m m m m m m m m m m m m m m m m M 7 ",
"q V V N N N N V V V V N N N M M V V V V B B V B B V V V V V V V V V V B N N N N N N N N N N N N N B B V V B B V V V V N V V M q ",
"w V N M B.x.v.B.B.v.v.l.g.z.j.g.g.g.l.g.z.g.z.z.z.z.z.z.z.z.z.z.z.z.z.g.z.z.f.f.x.x.z.z.z.z.z.z.z.z.z.z.z.z.z.z.z.z.v.,.N V M q ",
"q V N M j.7.7.s.s.s.s.s.7.7.s.s.s.s.s.s.7.7.7.s.s.7.7.7.7.7.7.7.7.7.7.7.7.7.7.7.7.7.7.7.7.7.7.7.7.7.7.7.7.7.7.7.s.4.7.,.N V B q ",
"q V N M j.7.,. .R R R R R R R R R R R R R R R R R R R R R R R R R R R R R R R R R R R R R R R R R R R R R R R R :.4.4.>.N V B q ",
"q V N M j.7.,...R E R R E E ~ ~ Q Q R R R R R R R R R R R R R R R R R R R R R R R R R R R R R R R R R R R R R R ,.4.4.>.N V B q ",
"q V N M g.>.,. .R R R  .O.+.+.+.+.+.+.+.O.+.+.+.+.+.+.O.O.O.O.+.+.O.+.+.+.+.+.+.+.+.+.+.+.+.+.+.+.+.+.+.R R R R ,.4.7.>.N N B q ",
"q V N M g.>.,. .~ K K O.>.4.4.7.7.7.7.7.s.7.7.>.>.>.>.,.,.,.,.s.s.7.7.7.7.7.>.>.>.>.>.>.>.>.7.7.7.7.7.4.R R R R ,.4.7.>.N N B q ",
"q V N M j.4.,. .~ R R +.>.>.x.^ / / / / / / / / / / / / / / / / / / / / / / / / / / / / / / / G } 4.4.4.R R R R ,.4.4.>.N V B q ",
"q V N M j.4.,. .E R R +.>.>.r.+ = = = = = = = = = = = = = = = = = = = = = < = = = = = = = = & & u 4.>.4.R R R R ,.4.7.,.N V B q ",
"q V N M g.>.,. .E R R +.>.>.n.# = = 6 k g g d = = - s g g d = = * & x k z 6 = = 1 j k l h & - - y 4.>.4.R R R R ,.>.7.,.N V B q ",
"q V N M g.>.,. .E R R +.>.>.m.# - = a       y.= = $         @ = * :       v = = <         # = - f 4.4.4.R R R R ,.>.7.,.N V B q ",
"q V N M g.>.,. .E R R +.>.>.m.# - = h       u.< - $ A.      @ = - #       n = - <         O = - f 4.4.4.R R R R ,.4.7.,.N V B q ",
"q V N M j.4.,. .E R R +.>.>.m.# - = h       i.= - * Z.      @ = = %       v = = <         # = - f 5.s.>.R R R R ,.4.7.,.N V B q ",
"q V N M j.4.,. .E R R +.>.4.m.# - = h       y.= - $ Z.      @ = = %       b = - <         # = - f 4.s.4.R R R R ,.4.7.,.N V B q ",
"q V N M g.>.,. .~ R R +.4.4.m.# - = = = = = = = = - - = & = = = = = 5 = < = = = * - - = = $ = - y 5.4.4.R R R R ,.4.7.,.N V B q ",
"q V N M g.>.,. .~ R R O.4.4.n.# = = * * - - - * * , - - - - - , , , , - - - * * * * * * = = = - f <.>.>.R R R R ,.4.7.,.N V B q ",
"q V N M j.4.,. .E R R +.>.,.g.I U Q U U U U Q U U U U U U U U U U U U U ! &.w.q.q.q.9.9.9.9.9.t.<.>.s.7.R R R R ,.4.7.,.N V B q ",
"q V N M j.4.,. .E R R O.>.>.v.R T R R R R R R R R R R R R R R R R R R R R $.,.>.>.>.4.4.4.4.4.7.5.4.>.>.R R R R ,.4.7.,.N V B q ",
"q V N M g.>.,. .E R R O.s.4.s.j.g.g.g.g.g.g.:.R R R ,.g.g.g.R R R K B.g.v.,.,.,.4.4.4.4.4.4.4.4.4.4.>.>.K R R R ,.4.7.,.N V B q ",
"q V N M f.>.,. .E R R O.s.s.s.4.7.7.,.,.,.,.-.R R R >.,.>.,.K K R R l.>.4.s.s.s.4.4.4.4.4.4.4.4.4.4.4.4.K R R R ,.4.7.,.N V B q ",
"q V N M f.4.,. .E R R O.s.4.4.4.7.7.>.>.>.>.-.R R R :.>.4.>.+.%.%.%.g.s.4.4.4.4.4.4.4.4.4.4.4.4.4.4.4.>.K R R R ,.4.7.,.N V B q ",
"q V N M j.4.,. .E R R +.s.4.4.4.7.7.>.>.>.>.-.R R K :.>.4.4.4.4.4.s.s.s.4.4.4.4.4.4.4.4.4.4.4.4.4.4.4.>.K R R R ,.4.7.,.N V B q ",
"q V N M g.>.,. .E R R o.4.4.4.4.4.4.4.4.4.4.:.+.+.O.>.4.4.>.>.>.>.4.4.4.4.4.4.4.4.4.4.4.4.4.4.4.4.4.4.4.K R R R ,.4.7.,.N V B q ",
"q V N M g.>.,. .E R R o.4.4.4.4.4.4.4.4.4.4.>.>.>.4.4.4.4.>.>.>.>.4.4.4.4.4.4.4.4.4.4.4.4.4.4.4.4.4.4.s.K R R R ,.,.s.,.N V B q ",
"q V N M j.4.,. .E R R o.4.4.4.4.4.4.>.>.>.>.4.4.4.4.4.4.4.4.4.4.4.4.4.4.4.4.4.4.4.4.4.4.>.%.$.$.$.$.$.*.R R R R #.$.*.$.N V B q ",
"q V N M j.4.,. .E R R o.4.4.4.4.4.4.>.>.>.>.4.4.4.4.4.4.4.4.4.4.4.4.4.4.4.4.4.4.4.4.4.4.f.J R R R R R E R R R R R R R R N N B q ",
"q V N M g.>.,. .E R R O.4.4.4.4.4.4.4.4.4.4.4.4.4.4.4.4.4.4.4.4.4.4.4.4.4.4.4.4.4.4.4.4.f.J R E K R R R R R R R R K H R N V B q ",
"q V N M g.>.,. .E R R O.4.4.4.4.4.4.4.4.4.4.4.4.4.4.4.4.4.4.4.4.4.4.4.4.4.4.4.4.4.4.4.4.f.J R R ] ,.>.,.,.,.>.>.>.>.>.,.N V B q ",
"q V N M j.4.,. .E R R O.,.>.4.4.4.4.4.4.4.4.4.4.4.4.4.4.4.4.4.4.4.4.4.4.4.4.4.4.4.4.4.4.z.J R R ' ,.4.>.7.e.z.g.s.4.>.,.N V B q ",
"q V N M j.4.,. .E R R O.,.>.4.4.4.4.4.4.4.4.4.4.4.4.4.4.4.4.4.4.4.4.4.4.4.4.4.4.4.4.4.4.g.J R R ' ,.4.s.M N N M :.>.>.,.N V B q ",
"q V N M g.>.,. .E R R O.s.4.4.4.4.4.4.4.4.4.4.4.4.4.4.4.4.4.4.4.4.4.4.4.4.4.4.4.4.4.4.4.g.J R R ' ,.4.7.M V N M :.s.4.,.N B B q ",
"q V N M g.>.,. .E R R +.4.4.4.4.4.4.4.4.4.4.4.4.4.4.4.4.4.4.4.4.4.4.4.4.4.4.4.4.4.4.4.4.g.J R R ' >.4.7.M V N m :.s.4.,.N V B q ",
"q V N M g.>.,. .E R R O.s.4.4.4.4.4.4.4.4.4.4.4.4.4.4.4.4.4.4.4.4.4.4.4.4.4.4.4.4.4.4.4.g.J R R ' ,.4.s.M N N M :.4.4.,.N V B q ",
"q V N M j.4.,. .E R R O.,.>.4.4.4.4.4.4.4.4.4.4.4.4.4.4.4.4.4.4.4.>.>.>.4.4.4.4.4.4.4.4.z.J R R ' ,.4.:.N.v.v.,.g.>.>.,.N V B q ",
"q V N M j.4.,. .E R R O.,.>.4.4.4.4.4.4.4.4.4.4.4.4.4.4.4.4.4.4.4.>.>.>.4.4.4.4.4.4.4.4.z.J R R ' ,.s.4.>.,.>.>.>.>.>.,.N B B q ",
"q V N M g.>.,. .E R R O.>.>.4.4.4.4.4.4.4.4.4.4.4.4.4.4.4.4.4.4.4.4.4.4.4.4.4.4.4.4.4.4.z.J R H R K J K K K K K R R J R N B B q ",
"q V N M g.>.,. .E R R O.>.>.4.4.4.4.4.4.4.4.4.4.4.4.4.4.4.4.4.4.4.4.4.4.4.4.4.4.4.4.4.4.z.J R R R R R R R R R R R R R R N V B q ",
"q V N M j.4.,. .E R R O.,.>.4.4.4.4.4.4.4.4.4.4.4.4.4.4.4.4.4.4.4.4.4.4.4.4.4.4.4.4.4.4.4.+.+.+.+.$.$.$.~ R R R O.$.%.O.N N B q ",
"q V N M j.4.,. .E R R O.,.>.4.4.4.4.4.4.4.4.4.4.4.4.4.4.4.4.4.4.4.4.4.4.4.4.4.4.4.4.4.4.4.>.>.>.7.4.4.s.R R R R :.>.4.,.N V B q ",
"q V N M g.>.,. .E R R o.4.4.4.4.4.4.4.4.4.4.4.4.4.4.4.4.4.4.4.4.4.4.4.4.4.4.4.4.4.4.4.4.4.4.4.4.4.4.4.g.R R R R :.>.4.,.N V B q ",
"q V N M g.>.,. .E R R o.4.4.4.4.4.4.4.4.4.4.4.4.4.4.4.4.4.4.4.4.4.4.4.4.4.4.4.4.4.4.4.4.4.4.4.4.4.4.4.g.R R R R :.>.4.,.N V B q ",
"q V N M j.4.,. .E R R O.,.>.4.4.4.4.4.4.4.4.4.4.4.4.4.4.4.4.4.4.4.4.4.4.4.4.4.4.4.4.4.4.4.4.4.4.4.4.4.g.R R R R :.>.4.,.N V B q ",
"q V N M j.4.,. .E R R O.,.>.4.4.4.4.4.4.4.4.4.4.4.4.4.4.4.4.4.4.4.4.4.4.4.4.4.4.4.4.4.4.4.4.4.4.4.4.4.g.R R R R :.>.4.,.N B B q ",
"q V N M f.>.,. .E R R O.>.>.4.4.4.4.4.4.4.4.4.4.4.4.4.4.4.4.4.4.4.4.4.4.4.4.4.4.4.4.4.4.4.4.4.4.4.4.4.>.K R R R :.>.4.,.N V B q ",
"q V N M f.>.,. .E R R O.>.>.4.4.4.4.4.4.4.4.4.4.4.4.4.4.4.4.4.4.4.4.4.4.4.4.4.4.4.4.4.4.4.4.4.4.4.4.4.>.K R R R :.>.4.,.N V B q ",
"q V N M j.4.,. .E R R O.,.>.4.4.4.4.4.4.4.7.s.s.s.s.g.g.4.4.4.4.4.4.4.4.4.4.4.4.4.4.4.4.4.4.4.4.4.4.>.>.K R R R :.>.4.,.N V B q ",
"q V N M j.4.>. .E R R O.,.>.4.4.4.4.4.4.4.>.;.R R K >.4.4.4.4.4.4.4.4.4.4.4.4.4.4.4.4.4.4.4.4.4.4.4.>.>.K R R R :.>.7.,.N V B q ",
"q V N M g.>.,. .E R R O.>.>.x.>.>.>.x.7.4.,.;.K K J :.7.7.4.4.4.4.4.4.4.s.1.>.>.z.g.>.>.7.7.7.4.4.4.4.,.K R R R :.>.4.,.N V B q ",
"q V N M g.>.,. .E R R O.>.>.g.K R R ] >.7.7.>.>.>.7.7.4.4.4.4.4.4.4.4.4.s.[ R R K g.>.>.7.7.7.4.4.4.4.g.R R R R :.>.4.,.N V B q ",
"q V N M j.4.,. .E R R O.>.,.g.K R R ] ,.7.7.7.7.7.g.g.>.>.4.4.4.4.4.4.s.>.[ R R K g.7.7.7.7.7.4.4.4.4.g.K R R R :.>.4.,.N V B q ",
"q V N M j.4.,. .~ R R O.>.,.z.K R R ] ,.7.>.:.R R K >.>.>.7.7.7.g.g.s.s.>.>.>.>.7.7.7.7.7.7.7.4.4.4.4.g.K R R R :.,.4.,.N V B q ",
"q V N M g.>.,. .E R R o.s.,.g.J R R [ ,.>.>.:.R R R >.4.7.g.>.7.4.>.g.7.x.4.>.>.>.g.7.7.7.7.7.4.4.4.4.>.K R R K ,.>.,.,.N V B q ",
"q V N M g.>.,. .E R R o.s.s.>.O.%.%.%.>.>.>.:.R R R ,.7.7.>.[ [ [ ..7.7.g.O.] ] ] f.7.7.7.7.7.4.4.4.4.>.K R R E ]  . . .N V B q ",
"q V N M g.>.,. .E R R o.s.4.4.4.4.4.4.4.,.,.:.R R R >.4.4.,.R R R J g.4.,.[ R R K z.>.7.7.7.7.4.4.4.4.>.K R R R R R R R V V B q ",
"q V N M j.4.,. .E R R o.s.s.g.X.[ [ +.g.,.>.:.R R R >.s.4.4.R R R J g.4.f. .R R K b.>.7.7.7.7.4.4.4.4.>.K R R R R R E R N B B q ",
"q V N M j.4.>. .E R R o.s.s.g.K R R ' >.,.>.:.R R R >.s.4.s.R R R J g.4.g.[ R R R b.>.7.7.7.7.4.4.s.,.,.R R R R R R E R N B B q ",
"q V N q o.X.X.A t i p | 4.4.g.J R R Q ..X.X...R R R X...X.+.R R R H X.X. .E R R R +.X.X...>.4.,.;.X.X.O.R R R R R R E R N B B q ",
"m V V m R R U t - = = F >.7.v.K R R R R R R R R R R R R R R E R R R R ) E R R R R R R R J g.,.,.=.R E R R R R R R R E R N B B q ",
"w C e e E R I t = = < F ,.>.v.R R R R R R R Q _ ~ Q E R R R R R E R R R R Q ! ! Q E E R J g.,.g.;.R R R ! ` _ Q R R E R V V B q ",
"@ = * 2 W R W t - = = c E R R R R R R R R R S - - $ L K R R R R E E E R R 0 < < = Q E R R R R R R R R R 3 < < > P E E R N B B q ",
"# = * 4 ( Y U r , = = Z Q ~ Q Q Q Q Q Q Q Q D = * & P U ~ Q Q W Q Q Q Q Q a = = = { U U Q Q Q ~ ~ ~ ~ W 3 $ $ & D Q R ~ M M M 8 ",
"# = * = = = = * * * ; * = = = = = = = = = = = - - = * * * = = = = = = = = * * * = = = = - - - - - - - - * * * * - - - * * * * o ",
". $ $ $ $ $ $ $ $ $ $ $ $ $ $ @ $ $ $ $ $ $ $ $ $ $ $ $ $ $ @ $ $ $ $ $ $ $ $ $ $ $ $ $ $ $ $ $ $ $ $ $ $ $ $ $ $ $ $ $ $ $ $ X "
};
