/* XPM */
static char *fad9b67e55634de3efa9b9241984e995F4VJIuTtvWqamkrM[] = {
/* columns rows colors chars-per-pixel */
"47 64 189 2 ",
"   c None",
".  c #333E4B",
"X  c #3D4247",
"o  c #36414C",
"O  c #3B444E",
"+  c #3D4751",
"@  c #3D4954",
"#  c #3E4C5B",
"$  c #344152",
"%  c #3E4E60",
"&  c #3E5063",
"*  c #3C546B",
"=  c #3B5C7D",
"-  c #3B5873",
";  c #444B54",
":  c #495057",
">  c #4C5259",
",  c #52565C",
"<  c #575B5F",
"1  c #40576E",
"2  c #595C62",
"3  c #415D7B",
"4  c #5F6163",
"5  c #636465",
"6  c #6B6B6A",
"7  c #706F6D",
"8  c #7D7973",
"9  c #787571",
"0  c #857F7A",
"q  c #D9961D",
"w  c #DA991F",
"e  c #DB9B23",
"r  c #D59E2E",
"t  c #DD9E28",
"y  c #D59F31",
"u  c #E19D21",
"i  c #DFA126",
"p  c #DEA02D",
"a  c #DFA232",
"s  c #E7AA25",
"d  c #E1A52B",
"f  c #E5AC2B",
"g  c #E6A628",
"h  c #EEBA2F",
"j  c #EAB42D",
"k  c #F2B929",
"l  c #F1B827",
"z  c #E3A738",
"x  c #EAB434",
"c  c #EFBD33",
"v  c #F1BB32",
"b  c #F5C633",
"n  c #F8C732",
"m  c #F6C933",
"M  c #F9CE38",
"N  c #F7CA39",
"B  c #FCD337",
"V  c #FED53A",
"C  c #FFD93C",
"Z  c #FFD837",
"A  c #F7C62B",
"S  c #B79445",
"D  c #B89649",
"F  c #AE9A5F",
"G  c #BA9A51",
"H  c #B79A54",
"J  c #8F8B69",
"K  c #918D6B",
"L  c #86817A",
"P  c #8D857C",
"I  c #91887E",
"U  c #959578",
"Y  c #E5AE4C",
"T  c #E4AC47",
"R  c #E9B447",
"E  c #F1B844",
"W  c #EBB85A",
"Q  c #F0B256",
"!  c #EDAF6B",
"~  c #EEBF61",
"^  c #E8B56D",
"/  c #ECBB6C",
"(  c #EBB464",
")  c #E4AF76",
"_  c #E9AE75",
"`  c #E3AE79",
"'  c #E4B075",
"]  c #F2C243",
"[  c #F9CF4C",
"{  c #F7CB4A",
"}  c #FCD343",
"|  c #FFD943",
" . c #FFDB4C",
".. c #FAD14C",
"X. c #EFC05E",
"o. c #F5C952",
"O. c #F3C559",
"+. c #FFDA58",
"@. c #FDD756",
"#. c #FDD867",
"$. c #F2C67D",
"%. c #FFDC76",
"&. c #FBD47F",
"*. c #F2C669",
"=. c #3A638A",
"-. c #396A98",
";. c #396996",
":. c #3873AA",
">. c #3776B0",
",. c #367CBE",
"<. c #416080",
"1. c #42688F",
"2. c #436F9D",
"3. c #4475A7",
"4. c #467FAE",
"5. c #457FBA",
"6. c #347DC2",
"7. c #66848F",
"8. c #678793",
"9. c #4984B5",
"0. c #6C8FA1",
"q. c #7299AF",
"w. c #739AB4",
"e. c #709AB9",
"r. c #6F94AA",
"t. c #3681CB",
"y. c #3988D7",
"u. c #3D93EC",
"i. c #4789CD",
"p. c #4A89C5",
"a. c #5393CE",
"s. c #589CDD",
"d. c #599AD6",
"f. c #679AC4",
"g. c #4996E5",
"h. c #4A99EA",
"j. c #4897E6",
"k. c #549CE3",
"l. c #459CF4",
"z. c #4A9CF1",
"x. c #449DFA",
"c. c #4AA1FA",
"v. c #948B80",
"b. c #9B9385",
"n. c #959983",
"m. c #9F958E",
"M. c #869995",
"N. c #AA9D8D",
"B. c #A19588",
"V. c #BCAB96",
"C. c #BEAC98",
"Z. c #B2A391",
"A. c #DAAE84",
"S. c #CBB79F",
"D. c #C4B39C",
"F. c #CDBCA3",
"G. c #D3BEA5",
"H. c #F3C988",
"J. c #FEDB8B",
"K. c #FFDD95",
"L. c #F7D19B",
"P. c #F9D49B",
"I. c #F6CE94",
"U. c #FFE086",
"Y. c #FFE097",
"T. c #DCC5A9",
"R. c #E0C7AA",
"E. c #E6CCAE",
"W. c #EACFAF",
"Q. c #FEDEAD",
"!. c #FAD8A5",
"~. c #E7CDB0",
"^. c #EED3B4",
"/. c #F1D6B4",
"(. c #F5D9B7",
"). c #FDDCB4",
"_. c #F1DBB9",
"`. c #FEDFBB",
"'. c #FEDFBA",
"]. c #FFE1A9",
"[. c #FFE1BC",
"{. c #FFE1BE",
"}. c #FFE5BE",
"|. c #FFE0BB",
" X c #FFE2C0",
".X c #FFE5C2",
"XX c #FFE1C2",
"oX c #FFEAC2",
"OX c #FFEDC4",
/* pixels */
"        + + + + + + + + + + + + +                                                             ",
"        + + + + + + + + + + + + +                                                             ",
"        + + + + + + + + + + + + +                                                             ",
"        + + + + + + + + + O O O O o                                                           ",
"        + + + + + + + + O O O o o . . . . O O +                                               ",
"        + + + + + + + + + O O O O O O O O O + + +                                             ",
"        + + + + + + + ; ; ; : : : : : : ; ; ; + + +                                           ",
"          + + + O + + ; , 2 6 6 6 6 6 6 4 , ; + O O                                           ",
"            + O O O ; > 5 8 I b.b.b.b.I 8 5 > + o . O +                                       ",
"                o O ; < 9 b.V.S.F.F.S.V.B.8 2 ; o o O + +                                     ",
"                . o ; 4 L Z.T./._._./.R.C.v.6 > ; O + + + +                                   ",
"                  o ; 5 P C.W.{.oXoX}./.G.N.L 6 < : ; ; + O                                   ",
"                  o ; 5 P C.^.}.OXOX.X(.E.D.N.I 9 5 , ; + O                                   ",
"                  o ; 5 P C.W.{.oXoX}.`./.T.F.V.b.8 4 : + o                                   ",
"                  o ; 5 P V.E.`.}.}.{.`.(._.^.R.C.v.6 > + .                                   ",
"                  o ; 5 v.D.W.`.}.{.{.|.{.}.{.(.G.N.9 , + .                                   ",
"                    : 7 B.F.^.`. X X{.{. X.X.X`.E.V.L 2 $                                     ",
"                      0 V.T.(.`. X X{.{. X.X.X X^.G.m.                                        ",
"                        T.^.(.`.{.{.|.|.{.{.{.`.(.E.                                          ",
"                          Q.Q.Q.Q.Q.Q.Q.Q.Q.Q.Q.Q.!.                                          ",
"                          Y.K.K.K.K.K.K.K.K.K.K.J.&.                                          ",
"                          %.%.%.%.%.%.%.%.%.%.%.#.O.E f g u e e                               ",
"                          +.+.+.+.+.+.+.+.+.+.@.[ ] x d e e e e e e                           ",
"                          | | | | | | | | | | } N c f i e e e e t t                           ",
"                          C V V V V V V C C C V m c f i e e e e t a T                         ",
"                          Z V V V V B V C C C B m h f t e q q w t z W H.                      ",
"                          C C V V V V V C C C V m c f t e q q e p T / I.). X                  ",
"                          V V V C C C C C C C V m c f d t e e t z W $.L.). X                  ",
"                        [ } V V C C C C C C C V N b j f d d d z Y / H.!.).{. X                ",
"                      ~ o...} V C C C C C C C V N b c x x R R W / H.L.!.).{.{.{.              ",
"                    ' / O.[ } V C C C C C C C V B M m b ] O.*.$.I.L.!.).`.{.{.{.|.|.          ",
"                  ` ) ^ X.o.} V C C C C C C C V V B B V ..#.&.P.!.).).`.`.|.|.|.|.|.          ",
"                ` ` ) ^ ~ o...C C C C C C C C C C V V V  .#.J.Q.`.`.{.|.`.|.|.|.|.|.|.        ",
"              ` ` ` ) ^ ~ o.} C C C C C C C C C C C C |  .#.U.].{.XX X{.|.`.`.`.|.|.|.|.      ",
"` ` ` ` ` ` ` ` ` ` ) ^ ~ o.} C C C C C C C C C C C C |  .+.%.    XX X{.|.`.`.`.|.|.|.|.|.|.|.",
"` ` ` ` ` ` ` ` ` ` ) ^ ~ o...C C C C C C C C C C C C C | |          X{.|.`.`.`.|.|.|.|.|.|.|.",
"` ` ` ` ` ` ` ` ` ` ) ^ W { } B V B B B B B B B B B B B B B          X{.|.|.|.|.|.|.|.|.|.|.|.",
"` ` ` ` ` ` ` ` ` ` _ ( W ] b n m m n n n n n n n n n n n A           {.|.|.|.|.|.|.|.|.|.|.|.",
"` ` ` ` ` ` ` ` ` _ ! Q E v k l l l l l l l l l l l l l l l               |.|.|.|.|.|.|.|.|.|.",
"` ` ` ` ` ` ` ` `       f f s s s s s s s s s s s s s s s s                 |.|.|.|.|.|.|.|.|.",
"` ` ` ` ` ` ` ` A.        y y y r y y r r r r r r r r r r r                 |.|.|.|.|.|.|.|.|.",
"` ` ` ` ) ) ` A.        U F H G G G G G G D D S S S S S S S                   |.|.|.|.|.|.|.|.",
"` ` ` ) _ _ `         d.q.M.n.n.n.n.n.n.U U K J J J J J J J                       |.|.|.|.|.|.",
"                  k.h.k.d.f.e.w.w.w.w.w.r.0.8.7.7.7.7.7.7.7.                                  ",
"                  h.h.h.h.k.s.s.s.s.s.d.a.p.9.9.4.4.4.4.4.4.                                  ",
"                z.z.z.z.z.z.z.z.z.z.z.h.j.y.t.6.,.,.,.,.,.,.                                  ",
"              l.l.z.z.z.z.l.l.l.x.x.x.u.u.y.t.6.6.6.6.6.6.6.6.                                ",
"            l.l.l.z.z.z.z.l.l.l.x.x.    y.t.6.6.6.6.6.6.6.6.6.,.>.-.= & @                     ",
"          z.z.z.z.z.z.z.z.z.z.z.z.        6.6.,.,.,.,.,.,.6.6.,.>.-.= & @ O                   ",
"        z.z.z.z.z.z.z.z.z.z.z.z.z.          ,.,.,.,.,.,.,.6.6.,.>.-.= & @ O                   ",
"        z.z.z.z.z.z.z.z.z.z.z.z.            ,.,.,.,.,.,.,.6.6.,.>.-.= & @ O X                 ",
"        z.z.z.z.z.z.z.z.z.z.                    ,.,.,.,.,.6.6.,.>.-.= & @ O X                 ",
"        z.z.z.z.z.z.z.z.z.                        ,.,.,.,.6.6.,.>.-.= & @ O                   ",
"        z.z.z.z.z.z.z.z.z.                          ,.,.,.6.6.,.>.;.= & @ O                   ",
"        z.z.z.z.z.z.z.z.z.                          ,.,.,.6.6.,.:.=.- % @ O O                 ",
"        c.z.z.z.z.z.z.z.z.                                      :.=.* # + O O                 ",
"        z.z.z.z.z.z.z.z.z.                                        - % @ + + O                 ",
"        g.j.h.h.h.h.h.h.h.                                          @ + + +                   ",
"        5.p.i.i.i.i.i.i.i.                                            + + +                   ",
"    & 3 1.2.3.3.3.3.3.3.3.                                                                    ",
"+ + # & 1 3 3 <.<.<.<.<.<.                                                                    ",
"+ + + @ # # % & & & & & &                                                                     ",
"+ + + + + + + + + + + + +                                                                     ",
"+ + + O O X X X X X X X X                                                                     "
};
