/* XPM */
static char *_ece27a2c63a4dd4c61d5c15c7b14b44F3t62vsCLnaxU6ZG[] = {
/* columns rows colors chars-per-pixel */
"47 64 192 2 ",
"   c None",
".  c #2F3D4B",
"X  c #343E4B",
"o  c #3D4247",
"O  c #36414D",
"+  c #3B444E",
"@  c #3D4751",
"#  c #3E4953",
"$  c #3E4C5B",
"%  c #334151",
"&  c #3E4F60",
"*  c #3D5063",
"=  c #3C546B",
"-  c #3B5C7D",
";  c #3B5773",
":  c #444B54",
">  c #494F58",
",  c #495057",
"<  c #4C5259",
"1  c #52565C",
"2  c #575B5F",
"3  c #40576D",
"4  c #595C62",
"5  c #415E7C",
"6  c #5F6163",
"7  c #42617F",
"8  c #636465",
"9  c #6B6B6A",
"0  c #706F6D",
"q  c #7D7973",
"w  c #787571",
"e  c #D9961D",
"r  c #DA991F",
"t  c #DC9B23",
"y  c #D59E2E",
"u  c #DD9E28",
"i  c #D59F31",
"p  c #E09D21",
"a  c #DEA029",
"s  c #DFA232",
"d  c #E1A125",
"f  c #E7AA25",
"g  c #E1A52B",
"h  c #E5AC2A",
"j  c #E9AA2F",
"k  c #EEBA2F",
"l  c #EAB42D",
"z  c #F2B929",
"x  c #F1B827",
"c  c #E3A738",
"v  c #EAB434",
"b  c #EFBD33",
"n  c #F1BB32",
"m  c #F5C633",
"M  c #F8C732",
"N  c #F6C933",
"B  c #F9CE38",
"V  c #F7CA39",
"C  c #FCD437",
"Z  c #FED53A",
"A  c #FFD93C",
"S  c #F6C72A",
"D  c #B79445",
"F  c #B8964A",
"G  c #AE9A5F",
"H  c #BA9A51",
"J  c #B79A54",
"K  c #8F8B69",
"L  c #908C6B",
"P  c #86817A",
"I  c #8D857C",
"U  c #91887E",
"Y  c #959578",
"T  c #E5AD4A",
"R  c #E9B447",
"E  c #F1B844",
"W  c #EBB85A",
"Q  c #F0B356",
"!  c #EEBF61",
"~  c #E9B56D",
"^  c #ECBB6C",
"/  c #EBB564",
"(  c #E4AF76",
")  c #E9AD75",
"_  c #E3AE79",
"`  c #F2C243",
"'  c #F7CC4B",
"]  c #FCD343",
"[  c #FFD943",
"{  c #FFDB4C",
"}  c #FAD14C",
"|  c #EFC05E",
" . c #F5C952",
".. c #F3C559",
"X. c #FFDA58",
"o. c #FDD756",
"O. c #FCD867",
"+. c #F2C67D",
"@. c #FFDC76",
"#. c #FBD47F",
"$. c #F2C669",
"%. c #3A6489",
"&. c #396A98",
"*. c #396996",
"=. c #3875AE",
"-. c #3776B0",
";. c #367DBE",
":. c #387CBE",
">. c #386FA3",
",. c #405F80",
"<. c #416080",
"1. c #41688F",
"2. c #436F9E",
"3. c #4475A7",
"4. c #467FAE",
"5. c #347DC2",
"6. c #337FCB",
"7. c #66848F",
"8. c #68858F",
"9. c #678793",
"0. c #4680AF",
"q. c #4782B7",
"w. c #6C8FA1",
"e. c #739AB3",
"r. c #709AB9",
"t. c #6F94AA",
"y. c #3782CB",
"u. c #3988D8",
"i. c #398EE4",
"p. c #4789CD",
"a. c #4A89C5",
"s. c #5796CF",
"d. c #589CDD",
"f. c #589AD8",
"g. c #6799C4",
"h. c #4A9AEB",
"j. c #4796E5",
"k. c #549CE3",
"l. c #459BF4",
"z. c #4A9CF1",
"x. c #449DFB",
"c. c #4096F3",
"v. c #4BA0F6",
"b. c #4BA1F9",
"n. c #948B80",
"m. c #9B9385",
"M. c #959983",
"N. c #9E958D",
"B. c #869995",
"V. c #AA9D8D",
"C. c #A19588",
"Z. c #BCAB96",
"A. c #BEAC98",
"S. c #B2A391",
"D. c #DAAE84",
"F. c #CBB79F",
"G. c #C4B39C",
"H. c #CDBCA3",
"J. c #D3BEA5",
"K. c #F2C988",
"L. c #FEDB8B",
"P. c #FFDD95",
"I. c #F7D19C",
"U. c #FAD698",
"Y. c #F6CE94",
"T. c #FFE085",
"R. c #FFE196",
"E. c #DCC5A9",
"W. c #E0C7AA",
"Q. c #E6CDAE",
"!. c #EACFAF",
"~. c #FEDEAD",
"^. c #FAD8A5",
"/. c #E7CDB0",
"(. c #EED3B3",
"). c #F1D6B4",
"_. c #FCDCB4",
"`. c #F1DBB9",
"'. c #FEDFBA",
"]. c #FEDFBA",
"[. c #F4DAB7",
"{. c #FFE1A9",
"}. c #FFE0BB",
"|. c #FFE1BC",
" X c #FFE1BE",
".X c #FFE5BE",
"XX c #FFE0BB",
"oX c #FFE2C0",
"OX c #FFE5C2",
"+X c #FFE1C3",
"@X c #FFEAC2",
"#X c #FFEDC4",
/* pixels */
"                                                            @ @ @ @ @ @ @ @ @ @ @ @ @         ",
"                                                            @ @ @ @ @ @ @ @ @ @ @ @ @         ",
"                                                            @ @ @ @ @ @ @ @ @ @ @ @ @         ",
"                                                          + + + + + @ @ @ @ @ @ @ @ @         ",
"                                              @ + O X X X X X O + + + @ @ @ @ @ @ @ @         ",
"                                            @ @ @ + + + + + + + + + @ @ @ @ @ @ @ @ @         ",
"                                          + @ @ : > > , < < < < , > : : @ @ + + @ @ @         ",
"                                          + + @ > 1 6 9 9 9 9 9 9 4 1 > @ @ + @ @ @           ",
"                                      @ + X O @ < 8 q U m.m.m.m.U q 8 < : + + @ +             ",
"                                    @ @ + O O : 4 q C.Z.F.H.H.F.Z.m.w 2 : + O                 ",
"                                  @ @ @ @ + : < 9 n.A.W.).`.`.).E.S.P 6 > O X                 ",
"                                  @ @ : > < 2 9 P V.J.)..X@X@X|.!.A.I 8 > O                   ",
"                                  + @ > 1 8 w U V.G.Q.[.OX#X#X.X(.A.I 8 > O                   ",
"                                  O @ , 6 q m.Z.H.E.).]..X@X@X|.!.A.I 8 > O                   ",
"                                  X @ < 9 n.A.W.(.[.[.].|..X.X].Q.Z.I 8 > O                   ",
"                                  . + 1 w V.J.[.|..X|.}.|.|..X].!.G.n.8 > O                   ",
"                                    % 4 P Z.Q.].OXOXoX|.|.oXoX].(.H.C.0 >                     ",
"                                        N.J.(.oXOXOXoX|.|.oXoX].[.E.Z.P                       ",
"                                          Q.[.|.|.|.|.|.}.|.|.].[.(.E.                        ",
"                                          ^.~.~.~._.~.~.~.~.~.~.~.~.                          ",
"                                          #.L.P.P.P.P.P.P.P.P.P.P.R.                          ",
"                              t t p d j E ..O.@.@.@.@.@.@.@.@.@.@.@.                          ",
"                          t t t t t t g v ` } o.X.X.X.X.X.X.X.X.X.X.                          ",
"                          u t t t t t d h b V ] [ [ [ [ [ [ [ [ [ [                           ",
"                        T s t t t t t a h k N Z A A A Z Z Z Z Z Z A                           ",
"                      K.W c u r e e t t h k N C A A A Z Z Z Z Z Z C                           ",
"                  |._.Y.^ T a t e e t t h k N Z A A A Z A Z Z Z A A                           ",
"                  oX_.I.+.W c u t t t d h b N Z A A A A A A A A A A                           ",
"                OX|._.^.K.^ T c c g g h l m V Z A A A A A A A A A ] '                         ",
"              |.|.|._.^.I.K.^ W R R v v b m V A A A A A A A A A ] ]  .!                       ",
"          ].}.|.|.|.]._.^.I.K.+.$...` m N B C A A A A A A A A A ] ' ..^ (                     ",
"          |.}.}.|.|.].]._._.^.U.#.O.} Z C C Z A A A A A A A A A ]  .| ~ ( _                   ",
"        }.}.}.}.}.}.].].|.].].~.L.O.{ A Z Z A A A A A A A A A A ]  .! ~ ( _ _                 ",
"      }.}.}.}.].].].}.|.oX+X|.{.T.O.{ [ A A A A A A A A A A A A ]  .! ~ ( _ _ _               ",
"}.}.|.}.}.}.}.].].].}.|.oX+X    @.X.{ [ A A A A A A A A A A A A ]  .! ~ ( _ _ _ _ _ _ _ _ _ _ ",
"}.}.}.|.}.}.}.].].].}.|.oX        [ [ A A A A A A A A A A A A A ]  .! ~ ( _ _ _ _ _ _ _ _ _ _ ",
"}.}.}.}.}.}.}.}.}.}.}.|.oX        C C C C C C C C C C C C C Z C ]  .W ~ ( _ _ _ _ _ _ _ _ _ _ ",
"}.}.}.}.}.}.}.}.}.|.}.|.          S M M M M M M M M M M M N N M m ` W / ) _ _ _ _ _ _ _ _ _ _ ",
"}.}.}.}.}.}.}.}.].|.              x z z z z z z z z z z z x x z z n E Q ~ ) _ _ _ _ _ _ _ _ _ ",
"}.}.}.}.}.}.}.}.}.                f f f f f f f f f f f f f f f f h j       _ _ _ _ _ _ _ _ _ ",
"}.}.}.}.}.}.}.}.}.                y y y y y y y y y y y i i y i i i         D._ _ _ _ _ _ _ _ ",
"}.}.}.}.}.}.}.}.                  D D D D D D D F F H H H H H H J G Y         D._ ( ( _ _ _ _ ",
"}.}.}.}.}.}.                      L K K K K K K L Y Y M.M.M.M.M.M.B.e.s.        _ ) ) ( ( _ _ ",
"                                  8.7.7.7.7.7.7.9.w.t.e.e.e.e.e.r.g.f.k.h.k.                  ",
"                                  4.4.0.4.4.4.0.q.a.s.f.d.d.d.d.d.k.h.h.h.h.                  ",
"                                  ;.;.;.;.;.;.5.y.u.j.h.z.z.z.z.z.z.z.z.z.z.h.                ",
"                                5.6.5.5.5.5.5.6.6.u.i.c.x.x.x.l.l.l.z.z.z.z.l.l.              ",
"                    @ * - &.-.;.5.5.5.5.5.5.5.5.6.y.u.    x.x.l.l.l.z.z.z.z.l.l.l.            ",
"                  + # * - &.-.;.5.5.;.;.;.;.;.;.5.5.        z.z.z.z.z.z.z.z.z.z.z.z.          ",
"                  + # * - &.-.;.5.5.;.;.;.;.;.;.;.          z.z.z.z.z.z.z.z.z.z.z.h.z.        ",
"                o + # * - &.-.;.5.5.;.;.;.;.;.;.;.            h.h.z.z.z.z.z.z.z.z.z.z.        ",
"                o + # * - &.-.;.5.5.;.;.;.;.;.                    z.z.z.z.z.z.z.z.z.z.        ",
"                  + # * - &.-.;.5.5.;.;.;.;.                        z.z.z.z.z.h.z.z.z.        ",
"                  + # * - *.-.;.5.5.;.;.:.                          z.z.z.z.z.h.z.z.z.        ",
"                + + # & ; %.=.:.5.5.;.;.;.                          z.z.z.z.z.z.z.z.z.        ",
"                + + @ $ = %.>.                                      z.z.z.z.z.z.v.z.b.        ",
"                @ + @ # & ;                                         z.z.z.z.z.z.z.z.v.        ",
"                  @ @ @ #                                           h.j.h.h.h.h.h.j.j.        ",
"                  @ @ +                                             p.p.p.p.p.p.p.a.q.        ",
"                                                                    3.3.3.3.3.3.3.2.1.5 *     ",
"                                                                    ,.7 <.<.<.<.5 5 3 * $ @ @ ",
"                                                                    * * * * * * & $ $ # @ @ @ ",
"                                                                    @ @ @ @ @ @ @ @ @ @ + @ @ ",
"                                                                    o o o o o o + + + + + @ @ "
};
