/* XPM */
static char *c783104df2694c59ee794b92d56c1ea1JB7MmfyCZfgdxBTN[] = {
/* columns rows colors chars-per-pixel */
"64 64 187 2 ",
"   c None",
".  c #020101",
"X  c #090001",
"o  c #000800",
"O  c #030209",
"+  c #0A000A",
"@  c #080A09",
"#  c #140000",
"$  c #1E0000",
"%  c #220000",
"&  c #2D0101",
"*  c #280A00",
"=  c #350000",
"-  c #3C0000",
";  c #450000",
":  c #4B0000",
">  c #540000",
",  c #7E0204",
"<  c #7B0408",
"1  c #555655",
"2  c #57575A",
"3  c #59575A",
"4  c #5A5A5C",
"5  c #7A4C4B",
"6  c #7A4E51",
"7  c #767676",
"8  c #797677",
"9  c #787877",
"0  c #797979",
"q  c #830203",
"w  c #8B0604",
"e  c #8D0308",
"r  c #880809",
"t  c #910707",
"y  c #9F0100",
"u  c #9C0109",
"i  c #920808",
"p  c #A20001",
"a  c #AB0000",
"s  c #B20000",
"d  c #BB0001",
"f  c #BE0709",
"g  c #BE0A0B",
"h  c #BA0D13",
"j  c #BD1617",
"k  c #BB141B",
"l  c #BD181C",
"z  c #9E1B20",
"x  c #9C2022",
"c  c #A52325",
"v  c #A22028",
"b  c #C40303",
"n  c #CA0305",
"m  c #C50806",
"M  c #CD0A04",
"N  c #C4050A",
"B  c #CB050B",
"V  c #C60A0B",
"C  c #CD0B0B",
"Z  c #D50504",
"A  c #DC0404",
"S  c #D30905",
"D  c #DA0804",
"F  c #D50609",
"G  c #DB050A",
"H  c #D40A0A",
"J  c #DA0909",
"K  c #CA100C",
"L  c #C30F10",
"P  c #CB0C11",
"I  c #D40A13",
"U  c #DC0E10",
"Y  c #D20E1A",
"T  c #C11214",
"R  c #CD1213",
"E  c #C2151A",
"W  c #C41818",
"Q  c #CA191F",
"!  c #D21112",
"~  c #D1141A",
"^  c #DE1B1B",
"/  c #E60201",
"(  c #E50102",
")  c #E50003",
"_  c #E60002",
"`  c #E60003",
"'  c #E60203",
"]  c #E70302",
"[  c #E50000",
"{  c #E40402",
"}  c #E10205",
"|  c #E50005",
" . c #E50305",
".. c #E10505",
"X. c #E40101",
"o. c #E80000",
"O. c #E90000",
"+. c #E90101",
"@. c #EA0000",
"#. c #E90002",
"$. c #EA0003",
"%. c #EA0200",
"&. c #E90101",
"*. c #E2010B",
"=. c #E2030A",
"-. c #E9020B",
";. c #E9020B",
":. c #E5090B",
">. c #EE0D09",
",. c #F3050A",
"<. c #F20D0B",
"1. c #E9100B",
"2. c #F4110E",
"3. c #FB120E",
"4. c #F50F12",
"5. c #FE0E14",
"6. c #E41616",
"7. c #ED1415",
"8. c #E51A16",
"9. c #EA1917",
"0. c #E4151B",
"q. c #ED151A",
"w. c #E61B1A",
"e. c #EA1A1C",
"r. c #F51615",
"t. c #FA1312",
"y. c #FE1212",
"u. c #FD1212",
"i. c #F91610",
"p. c #FB1613",
"a. c #FA1511",
"s. c #FE1513",
"d. c #FF1215",
"f. c #FF1217",
"g. c #F91515",
"h. c #FD1515",
"j. c #FF1616",
"k. c #FD1413",
"l. c #F51913",
"z. c #FC1813",
"x. c #F4161A",
"c. c #FC1519",
"v. c #F11C1A",
"b. c #FB191A",
"n. c #E6231F",
"m. c #DE1D20",
"M. c #EA1E21",
"N. c #E42424",
"B. c #EC2322",
"V. c #EB2824",
"C. c #EC2D2D",
"Z. c #F52823",
"A. c #F02E2F",
"S. c #E22D32",
"D. c #E13334",
"F. c #EC3533",
"G. c #E73E37",
"H. c #F63234",
"J. c #FA3435",
"K. c #F8353B",
"L. c #F23838",
"P. c #FF413B",
"I. c #834A4C",
"U. c #88605E",
"Y. c #936866",
"T. c #946D68",
"R. c #FF4745",
"E. c #F74843",
"W. c #FC4A45",
"Q. c #FC4D4A",
"!. c #FD524C",
"~. c #FF5454",
"^. c #FF5B56",
"/. c #FF5C5C",
"(. c #FF635C",
"). c #FF685C",
"_. c #FF6561",
"`. c #FF6A66",
"'. c #FE6E6B",
"]. c #FE7166",
"[. c #F7706D",
"{. c #FE726C",
"}. c #FF6E73",
"|. c #F77575",
" X c #FE7272",
".X c #FF737C",
"XX c #FF797A",
/* pixels */
"                                                    . . . . . . . . . . . .                                                     ",
"                                                    . O . . . . . . . . . .                                                     ",
"                                    0 9 9 0 0 9 0 Y., < , , , , , , , , q , U.8 9 0 0 9 9 9                                     ",
"                                    @ . . . . . . - ( X.( ( ( ( ( ( ( O.( ( - . . . . . . .                                     ",
"                                    . X . . X X . - A A X.( X.X.A ( (  .} ( ; X X X X X X .                                     ",
"                          @ . O . $ V H C C C C C P a p p p p p a D O.:.a a V H C C C K C ~ * . . . .                           ",
"                          . . . . % *.;.( ( ( ( X.D y p p y y y p F ( =.p u M ( ( ( ( O.O.} % . . . .                           ",
"                          & = = = ; J F J J J G H P p y y p p a s J D F a d J X.X.X.X.O.X. .> = = = =                           ",
"                    . . X G X.} ( D p y y y y y p p y y y p a (  .a y a  .( X.( ( ( ( ( ( ( X.} ( ( D # X .                     ",
"                    X . # G ( X.O.Z p y y y p y p p y p y y a O.( s y a ( O.( ( ( ( O.( ( O.O.O.( ( A # . .                     ",
"                o O z h k a a s s s p p y y p p y y p p C G H a s H G Z O.O.( ( ( s.s.<.( O.u.y.2.O.X.T E v . @                 ",
"                X O T ;.A y p y y y y p y y p p y y p p Z X.J y p F ( ( O.X.( ( ( s.s.u.( ( p.s.2.( ( O.( W X .                 ",
"                X # l X.H p p y y y y y y y y p p p p a F X.J p a D O.( ( O.( ( ( s.p.g.( ( p.p.<.X.( O.X.j X X                 ",
"          . . & G *.s y y y p p y y y y y p y y y s O.X.p p a  .] O.O.( s.p.p.y.g.s.d.y.y.s.y.d.d.y.p.g.s.g. .;.- . +           ",
"          . . = D O.a p p p y y y y y y y y p y y s ( O.a p a ( ( ( O.X.p.j.d.c.s.y.s.p.d.5.3.3.3.y.y.y.d.r.( O.= . .           ",
"          . . = A ( s y y y y y y y y p y y p f n b b b b n Z ( ( >.<.<.3.s.P.E.R.x.s.B.W.W.v.y.Z.W.W.f.d.l.,.1.- . .           ",
"          . . = X.@.s y y y y y y y y y y p p A O.J y y G X.O.X.( s.s.y.s.s.(. X'.g.s.C. X|.r.s.L. X Xg.s.z.z.l.- . .           ",
"          $ % ; F D s y y y y y y y y y y p p F Z C s a A X.O.X.( s.s.d.9.e.(.{.`.w.q.D. X Xm.q.L.`.'.8.w.9.d.c.> $ %           ",
"    9 @ . R } S p p p y y y y y y y y y y p y p p s X.X.X.( ( ( ( s.s.q.]. XN.c.b.{.|. X X X XXX!.r.g.{.{.`.c.p.X.=.K . . 1     ",
"    9 . X H  .J p y y y y y y y y y y p y p u y y a ( ( ( ( O.( ( s.s.x. X}.V.d.g.'. X X X X X X!.p.d. X|.`.s.f.( A ! X . 1     ",
"    9 . . C ( J p p y y y y y y y y y y y y y b C C d d A ( O.<.3.s.s.<.F.F.!.Q.~.}. X X X X X|.`.~.!.G.L.J.g.s.<.4.^ . . 2     ",
"    9 . . C ( J p p y y y y y y y y y y p p p  .( F p p Z ( ( u.s.s.s.h.5.s./.|. X X X X X X X X X X Xs.s.s.y.j.z.g.n.. . 4     ",
"    9 . . C ( J p p y y y y y y y y y y p y p A ( S p p D ( O.u.s.s.s.u.j.s.).{. X X X X X X X X|. X Xv.b.r.g.s.z.c.n.. . 4     ",
"    9 . . C ( D p p y y y y y y y y y y y y p p p s A ( ] ( ,.] O.s.s.x.'.`.[. X|. X X X X X X X X X X].'.`.f.3.O.( M . . 4     ",
"    7 . . C X.I y y y y y y y y y y y y y y y y y s O.( O.O.( ( O.s.s.q. X}. X X X X X X X X X X X X X X X'.d.s.O.{ C . . 1     ",
"    Y.- - P Z C y y y y y y y y y y y y y p y s s d J F A O.( ( O.s.s.q._._.{. X X X X X X X X X X X X`.`.(.p.y.O.( J ; - 5     ",
". . q ( A a y p y y y y y y y y y y y y y p p } ( F y p S ( ( y.s.s.s.y.s.s.(. X X X X X X X X X X X Xl.p.d.l.s.s.y.s.] ( t . . ",
". . q  . .a p u y y y y y y y y y y y p y p y G X.F p p F O.X.s.s.s.s.c.p.p.(. X X X X X X X X X X X Xr.r.y.p.d.s.g.z.O.( w X . ",
". . , ( X.p p p y y y y y y y y y y y y y y p a p d G =.*.O.( ( ( s.s.q.].`.C.w.^ {. X X X X X XQ.q.^ `.].`.p.u.O.( ( O.X.w . . ",
". . , ( X.p p p y y y y y y y y y y y p y y p y p s A ( O.X.O.X.( s.s.x.'..XB.3.h.[.}. X X X X X!.s.s.}.}.`.y.u.%.( ( O.X.w . . ",
". . , ( X.p p p y y y y y y y y y y y y y y p a a d G G  .( ( ( ( s.s.7.'.`.N.e.w.`.`.{. X X{.'.Q.e.M.`.{.(.y.s.O.( ( O.X.w . . ",
". . , ( X.p p p y y y y y y y y y y y y y p p G  .G p p F O.X.( ( s.s.d.s.h._. X{.r.g.S. X{.M.j.K.|. Xb.g.s.3.s.O.( ( O.X.w . . ",
". . , ( X.p p p y y y y y y y y y y y p y p y G X.F p p S ( ( ( ( s.s.s.d.s.^. X{.g.g.A.{.[.q.u.H. X X2.s.y.y.u.( ( ( O.X.w . . ",
". . , ( X.p p p y y y y y y y y y y y y y p y a a d Z D s a s  .( ( O.( s.s.9.0.w.y.s.r.9.6.d.s.g.w.q.p.s.y.O.( ( ( ( O.X.w . . ",
". . , ( X.p p p y y y y y y y y y y y y y y y y p s ( X.a u p X.( ( ( ( s.s.p.d.s.s.s.s.s.y.p.p.s.s.s.s.s.s.O.( ( ( ( O.X.w . . ",
". . , O.} p p y y y y y y y y y y y y y y y y y y a J G s a a J  .X.( O.g.y.s.s.s.s.s.j.u.s.s.s.s.s.s.z.s.s.O.( ( X.O.( ( e . . ",
". . q X.( y p p y y y y y y y y y y y y y y y y y y y y Z } G p p S X.O.O.( O.( ( s.s.u.O.O.s.u.<.O.O.O.( ( ( X.O.O.( $.( r . . ",
". . q (  .a y p y y y y y y y y y y y y y y y y y p p p *.( G p a F O.X.( ( ( ( ( s.s.u.O.O.s.g.<.( ( ( ( ( ( O.( ( O.( ( q . . ",
"    T.- ; P F C y y y y y y y y y y y y y y y y p y y y s a s H S d s d X.( X.O.( ( ( $.O.O.$.( ( ( ( ( O.A d d A X.J ; ; 5     ",
"    8 . X V ( J p y y y y y y y y y y y y y y y y y p y p y s O.X.s y a X.( ( ( ( { O.( ( ( ( @.{ ( ( X.( =.y y J O.C . . 4     ",
"    9 . X V  .J p y y y y y y y y y y y y y y y y y y y p y a J A s p a *.} $.( ( A =.A ( ( A *. .O.X. .A F p p S X.S . . 3     ",
"    9 . X V  .J p y y y y y y y y y y y y y y y y y y y y p p p p S  .J a y J X.A a p b ( ( s a b O.X.a p s A  .X.X.S . . 3     ",
"    9 . X V  .J p y y y y y y y y y y y y y y y y y y y y y p y p F O.*.p y J O.} p p d X.X.a y d O.X.p p p ( O.( X.S . . 3     ",
"    9 . . N ;.D p y p y y y y y y y y y y y y y y y y y y y y y p g m b d s b C V d d b b V b d b V B s d b m n D } C X . 2     ",
"    9 . X B ( D y y p p y y y y y y y y y y y y y y y y y y y y y p p a A X.s y a G $.m p p A ( n y p } } F p y D O.C X . 4     ",
"    7 . o P =.U p p p p y y y y y y y y y y y y y y y y y y y y y y y p A O.a y a D ( m p y D X.n y p X.A Z p p H A P . . 1     ",
"          % % > J J a y y y y y y y y y y y y y y y y y y y y y y p p y p p p p a a p a p y a p p y a p a s G S > % &           ",
"          . . = X.O.s y y y y y y y y y y y y y y y y y y y y y y y y y y y p y y y y y y y p y y y y y y a O.X.= . o           ",
"          . . = A O.s p y y y y y y y y y y y y y y y y y y y y y y y y y y y y y y y y y y y y y y y p y a X.( = . o           ",
"          . . = ( O.a y y y y y y y y y y y y y y y y y y y y y y y y y y y y y y y y y y y y y y y y y y a O.{ = . .           ",
"          . . = Z X.a p y y y y y y y y y y y y y y y y y y y y y y y y y y y y y y y y y y y y y y y p y a A D = . .           ",
"                # # W O.D p p p y y y y y y y y y y y y y y y y y y y y y y y y y y y p y y p y p y p Z A W # X                 ",
"                . . E X. .p y y p p p p y y y y y y y y y y y y y y y y y y y y y y y y y y y y y y y A A E X .                 ",
"                . . x j Q a a a s a y y y y y y y y y y y y y y y y y y y y y y y y y y y p a a s s s T j c . @                 ",
"                    . + # A ( X.O.F p p y y y y y y y y y y y y y y y y y y y y y y y p y p J ( X.O.A # . .                     ",
"                    . @ X  .$. . .G p p y y p p p p p p y y y y y y y p y y p y y y y p p p *. . . .D X . o                     ",
"                          - - - - : C S H H H H J P p p y y y y y y y y y p N J S S S S S ! > - - - =                           ",
"                          . . . . % G A X.X.X.X.O.S y p y y y y y y y y p y M ( ( ( ( } X.A % . . . .                           ",
"                          + . O O $ R C C C C C C L p y p a a p p p p a p p V C C C C H S Y & . . . .                           ",
"                                    . X . . . X X - X.( ( ( ( ( X.X.X.X.} X.; X . . . X X .                                     ",
"                                    . . . . . . . - O.O.X.X.X.X.X.X.X.X.X.O.; . . . . . . .                                     ",
"                                    4 1 4 4 4 4 4 6 e w e e e e e e e e q i I.4 4 4 4 4 4 4                                     ",
"                                                    O O . . . . . . . . . o                                                     ",
"                                                    . . . . . . . . . . . .                                                     "
};
